<svg version="1.1" id="Layer_1" xmlns="http://www.w3.org/2000/svg" xmlns:xlink="http://www.w3.org/1999/xlink" x="0px" y="0px"
	 width="100%" viewBox="0 0 500 500" enable-background="new 0 0 500 500" xml:space="preserve">
<path fill="#545454" opacity="1.000000" stroke="none" 
	d="
M265.000000,501.000000 
	C176.666687,501.000000 88.833374,501.000000 1.000047,501.000000 
	C1.000031,334.333405 1.000031,167.666794 1.000016,1.000137 
	C167.666565,1.000091 334.333130,1.000091 500.999756,1.000046 
	C500.999847,167.666519 500.999847,334.333038 500.999939,500.999786 
	C422.500000,501.000000 344.000000,501.000000 265.000000,501.000000 
M226.004196,303.992218 
	C226.004196,303.992218 226.022507,303.935638 226.290207,304.354279 
	C226.499344,304.618835 226.754761,304.826447 227.002472,304.953949 
	C227.002472,304.953949 227.047836,304.916504 227.194855,305.570404 
	C228.445145,307.071808 229.695419,308.573242 231.238968,310.433716 
	C231.446335,310.666260 231.677200,310.872528 232.214020,311.429626 
	C232.413376,311.673126 232.628204,311.902069 232.973404,312.127594 
	C232.973404,312.127594 233.161636,311.794373 232.813385,311.478912 
	C232.576263,311.272827 232.324112,311.087158 231.771439,310.558014 
	C231.568024,310.322510 231.339996,310.113922 230.861496,309.285645 
	C230.194534,308.045441 229.527573,306.805267 229.619186,305.796204 
	C237.256470,307.029480 239.899994,305.963440 240.769836,301.299591 
	C229.699356,303.939026 228.619415,303.602478 228.313156,296.987946 
	C232.695633,296.760254 237.087753,296.532074 241.389160,296.308594 
	C242.776932,287.663513 237.409073,283.101318 229.698471,285.908905 
	C228.466949,286.357330 227.219040,286.760773 225.687454,287.479523 
	C225.522278,288.216034 225.357117,288.952515 225.105499,290.255188 
	C224.882187,290.775635 224.658859,291.296082 223.936127,291.228149 
	C223.242264,290.469025 222.548401,289.709869 221.512146,288.523987 
	C220.748154,288.080383 219.984177,287.636780 218.548660,286.803253 
	C217.167953,286.262756 215.826904,285.431732 214.399002,285.236755 
	C210.260025,284.671478 206.715164,285.938019 204.668243,289.765533 
	C202.275345,294.240021 202.415695,298.833282 205.426819,302.969788 
	C208.007767,306.515381 211.841370,306.926208 215.799408,305.927765 
	C219.097763,305.095703 220.143326,303.177704 219.295410,300.222351 
	C212.769073,304.757172 207.765900,304.198547 207.149933,298.500214 
	C206.820312,295.450928 207.747467,291.273621 209.754425,289.197296 
	C212.739655,286.108856 216.148331,288.755371 219.052948,291.367371 
	C219.306412,291.125366 219.559875,290.883362 219.933838,290.211548 
	C219.933838,290.211548 220.156311,289.824585 220.595276,289.821014 
	C220.595276,289.821014 221.035339,289.802307 221.352676,290.387360 
	C221.980530,291.299164 222.608383,292.210968 223.515869,293.824707 
	C223.731888,295.580627 223.947891,297.336517 223.669815,298.939240 
	C223.503555,298.893463 223.337296,298.847717 223.015198,298.775940 
	C223.015198,298.775940 222.751144,298.907166 222.751144,298.907166 
	C222.751144,298.907166 222.773865,299.204834 222.939316,299.843964 
	C223.747238,300.851166 224.555176,301.858398 225.223816,303.054321 
	C225.223816,303.054321 225.035049,302.915100 225.325699,303.319489 
	C225.537628,303.578918 225.783463,303.800781 226.004196,303.992218 
M237.028946,314.812439 
	C237.028946,314.812439 236.802567,315.180115 236.939087,315.220459 
	C236.939087,315.220459 237.173599,315.093628 237.173599,315.093628 
	C237.173599,315.093628 237.156982,314.818481 237.028946,314.812439 
M281.150757,199.985138 
	C279.825012,200.035400 278.499268,200.085648 276.363770,200.097687 
	C275.835205,200.200363 275.306641,200.303040 274.157776,200.516830 
	C273.743927,200.588974 273.330048,200.661102 272.276001,200.363266 
	C268.363586,198.334824 265.471283,199.956985 262.200775,203.143585 
	C246.357132,207.647812 234.714172,217.702225 224.898788,230.548676 
	C219.461090,226.712036 213.848083,223.821640 206.892487,227.321808 
	C208.232849,228.822296 209.711685,230.101700 211.399139,230.502228 
	C215.547272,231.486801 219.791428,232.066910 223.943619,233.565125 
	C223.609482,234.825317 223.404236,236.137405 222.921036,237.337570 
	C218.644653,247.958542 216.399826,258.936127 217.118240,270.417664 
	C217.236313,272.304626 217.794983,274.164001 218.150024,276.036133 
	C218.523834,275.967438 218.897629,275.898743 219.271439,275.830078 
	C219.271439,270.911102 219.271439,265.992157 219.750839,261.103516 
	C219.750839,261.103516 220.231171,261.105988 220.231171,261.105988 
	C220.231171,261.105988 220.710602,261.076324 220.749588,261.924255 
	C220.998795,266.864075 221.248001,271.803894 221.497208,276.743713 
	C222.019104,276.808258 222.541000,276.872803 223.062897,276.937347 
	C221.231598,247.901794 231.336105,225.528137 258.169128,213.505829 
	C258.009064,214.201462 257.848999,214.897095 257.811005,215.062271 
	C263.564209,213.918304 269.163635,212.741608 274.787842,211.698532 
	C291.062469,208.680222 305.248932,213.347351 317.981384,223.452454 
	C319.504456,224.661240 321.373016,225.434708 323.785553,226.428223 
	C324.800934,227.361313 325.816315,228.294388 327.126648,229.847015 
	C328.120270,231.379990 329.181976,232.873489 330.097046,234.451981 
	C340.552399,252.487305 344.129944,271.324493 335.455261,291.028625 
	C325.099518,314.551208 300.043854,328.820801 274.449524,326.312592 
	C270.540100,325.929474 266.648468,325.364471 262.748627,324.883575 
	C262.678436,325.219849 262.608276,325.556122 262.538086,325.892395 
	C264.214966,326.365356 265.891876,326.838318 266.936188,327.690887 
	C265.677338,328.483093 264.137482,329.031586 263.204865,330.106750 
	C256.782471,337.510895 252.743759,346.035736 252.532532,355.941162 
	C252.427032,360.888519 255.572113,362.950378 260.207458,361.043976 
	C262.856934,359.954376 265.286926,357.987854 267.386871,355.969879 
	C273.573395,350.024719 274.522247,342.084991 276.048706,334.082581 
	C282.498077,333.265656 288.947449,332.448730 295.396851,331.631775 
	C295.342682,331.282867 295.288544,330.933960 295.234375,330.585022 
	C288.519531,331.258331 281.804688,331.931610 274.852661,331.979279 
	C274.391754,330.964783 273.930878,329.950287 274.436005,328.669525 
	C287.312744,329.570923 299.363342,326.604858 311.307556,321.165710 
	C313.952240,322.547485 314.694183,321.633301 314.297363,318.534393 
	C314.762115,318.287140 315.226837,318.039886 316.072906,318.059418 
	C316.618744,318.129486 317.164581,318.199585 317.710419,318.269684 
	C317.556946,317.712128 317.403442,317.154541 317.680817,316.167877 
	C318.347900,315.711060 319.015015,315.254242 320.502045,314.773651 
	C322.228821,314.344604 324.785034,314.490906 325.546936,313.392548 
	C330.288757,306.556854 334.628632,299.442383 339.665314,291.857880 
	C341.055511,290.610229 342.445709,289.362549 344.474670,288.103363 
	C345.318695,287.540833 346.162720,286.978302 346.911224,287.345093 
	C346.111237,290.511993 345.311249,293.678864 344.511261,296.845764 
	C351.868591,284.448486 352.946442,270.953857 351.804077,256.309967 
	C351.556213,255.003845 351.384735,253.677704 351.048584,252.394714 
	C348.081116,241.069107 344.538269,230.030411 334.915009,221.389511 
	C330.855591,217.514954 327.201508,213.060638 322.655365,209.882233 
	C312.037201,202.458588 300.100769,198.350479 286.268921,197.894638 
	C283.305847,197.894638 280.342773,197.894638 276.572845,197.894638 
	C278.989288,198.816299 280.467743,199.380203 281.150757,199.985138 
M243.528244,387.982971 
	C241.311935,384.017059 237.815506,385.012177 234.803253,386.226929 
	C227.159958,389.309204 219.579803,392.588135 212.175095,396.199860 
	C209.646011,397.433441 207.714706,399.892548 205.034897,402.201263 
	C214.237549,405.686401 222.394730,405.820282 230.096741,401.684082 
	C235.720261,398.664124 242.703110,396.684601 243.528244,387.982971 
M279.493439,304.285614 
	C283.511658,299.272217 283.241882,296.684906 278.072784,290.660278 
	C281.712921,284.813019 280.505524,279.964142 274.869110,279.196625 
	C270.854340,278.649933 266.705170,279.090515 262.569336,279.090515 
	C262.569336,288.978363 262.569336,298.274994 262.569336,307.031952 
	C265.155975,306.647247 267.143738,306.334686 269.136566,306.059021 
	C272.377258,305.610718 275.621307,305.186554 279.493439,304.285614 
M139.203583,377.283936 
	C137.150375,376.920013 135.097183,376.556122 133.043976,376.192200 
	C133.520172,378.071289 133.447006,380.405029 134.563568,381.754089 
	C140.818405,389.311249 149.737030,393.208893 158.119888,397.631592 
	C161.433319,399.379761 165.829330,400.820709 170.633041,397.311676 
	C168.637360,395.555573 167.226730,393.571075 165.317703,392.760651 
	C156.129379,388.860138 147.311432,384.414978 139.203583,377.283936 
M177.713593,294.711578 
	C176.314240,287.317810 172.917389,284.164062 167.555573,285.285370 
	C164.919144,285.836700 162.284348,286.395874 159.020996,287.083862 
	C159.020996,294.746613 158.973465,303.356384 159.105927,311.963348 
	C159.117233,312.698395 160.326492,313.414978 161.781845,315.031799 
	C162.009155,310.672485 162.160339,307.773041 162.314880,304.809479 
	C173.020233,307.974243 176.692139,305.702850 177.713593,294.711578 
M116.443741,261.462616 
	C109.327354,267.146606 107.767990,275.215576 107.109734,283.597595 
	C107.024185,284.686951 107.980911,285.858154 108.454842,286.991394 
	C109.534889,286.448639 111.192879,286.180115 111.601624,285.318787 
	C114.349892,279.527435 117.161804,273.720367 119.191582,267.663208 
	C119.763939,265.955231 117.793175,263.395050 116.443741,261.462616 
M192.375732,292.996368 
	C190.147034,293.649261 187.378708,293.707153 185.830933,295.110840 
	C184.034698,296.739899 182.195847,299.694366 182.468826,301.802460 
	C182.690994,303.518250 185.890076,305.884674 187.962769,306.100311 
	C191.798553,306.499329 195.776062,305.535858 198.693359,305.241058 
	C198.393661,301.442322 198.439819,297.251984 197.613098,293.241547 
	C197.069992,290.606934 195.729355,286.627747 193.922516,286.106903 
	C191.019318,285.269989 187.413727,286.701416 184.162659,287.431427 
	C183.705139,287.534149 183.573715,289.089172 183.129852,290.476807 
	C186.097626,289.468231 188.180511,288.309692 190.344299,288.131073 
	C193.563446,287.865295 195.310425,289.208679 192.375732,292.996368 
M108.925346,345.674042 
	C107.182632,344.643921 105.439919,343.613770 103.495934,342.464661 
	C101.964622,349.848450 108.039619,363.318726 113.934433,366.468933 
	C114.685959,366.870544 116.059479,367.020142 116.629478,366.595215 
	C117.208244,366.163727 117.590080,364.693268 117.299606,363.992126 
	C114.802925,357.966034 112.134300,352.011200 108.925346,345.674042 
M134.002319,251.511856 
	C138.407211,246.682358 142.812103,241.852875 147.216980,237.023376 
	C146.926620,236.584122 146.636261,236.144852 146.345901,235.705597 
	C145.111908,235.597183 143.672531,235.020660 142.677628,235.457169 
	C136.723053,238.069702 130.539154,240.655746 127.724930,247.117935 
	C126.658981,249.565628 126.727356,252.507278 126.278702,255.223801 
	C128.668732,254.137711 131.058762,253.051636 134.002319,251.511856 
M151.119049,286.552551 
	C148.888916,286.093414 146.411758,284.815002 144.494385,285.393127 
	C142.345947,286.040924 139.800186,288.032104 139.050415,290.043701 
	C137.879471,293.185333 140.258636,295.253235 143.344376,296.165833 
	C144.780197,296.590485 146.418106,296.706116 147.600372,297.502319 
	C148.659134,298.215363 149.951843,299.787048 149.795975,300.765594 
	C149.633331,301.786530 147.914917,303.185547 146.782654,303.278900 
	C145.098068,303.417786 143.333694,302.543335 141.597794,302.122742 
	C140.583145,301.876923 139.557831,301.675049 137.689987,301.269348 
	C141.119202,306.567627 148.096725,307.774353 151.583313,304.586426 
	C154.459518,301.956604 153.910141,297.125122 150.406769,295.286652 
	C149.105347,294.603668 147.374054,294.653931 146.192200,293.850189 
	C144.645889,292.798584 143.449966,291.231720 142.103317,289.886536 
	C143.987091,289.299286 145.840530,288.522156 147.768906,288.214142 
	C148.590225,288.082947 149.564896,289.195831 150.476639,289.207306 
	C150.841965,289.211914 151.225464,287.773743 151.119049,286.552551 
M100.861473,303.987427 
	C97.744209,313.325317 99.158295,321.427826 104.576965,324.644623 
	C104.989243,324.177460 105.808121,323.675629 105.790390,323.205353 
	C105.543427,316.654327 105.197289,310.106384 104.703270,303.570709 
	C104.695847,303.472412 102.508842,303.538849 100.861473,303.987427 
M167.972916,378.004028 
	C166.570847,378.004028 165.168793,378.004028 163.565231,378.004028 
	C167.111633,385.478210 178.727005,389.096680 185.081467,384.518066 
	C180.287323,380.257996 174.290924,379.673279 167.972916,378.004028 
M169.788162,231.540054 
	C165.378021,233.020157 160.801727,234.283722 159.261765,239.972397 
	C163.880142,239.505325 168.262726,238.515778 172.369644,236.847580 
	C174.239624,236.087967 175.564621,233.986755 177.136826,232.494080 
	C174.921249,232.098053 172.705673,231.702026 169.788162,231.540054 
M187.989182,221.816315 
	C184.404282,222.776016 180.819366,223.735733 177.234467,224.695450 
	C181.918060,228.319534 191.317474,226.875061 196.672516,222.529846 
	C193.439941,222.216858 191.121735,221.992416 187.989182,221.816315 
M246.638733,291.801208 
	C248.570206,295.021118 252.520111,295.255402 256.480530,291.511536 
	C252.826797,291.511536 250.013138,291.511536 246.638733,291.801208 
M280.796021,357.011383 
	C281.588379,354.863068 282.380737,352.714783 283.173096,350.566467 
	C282.472595,350.274292 281.772125,349.982117 281.071625,349.689972 
	C279.601715,352.567383 278.131775,355.444794 276.661865,358.322205 
	C277.075348,358.641968 277.488831,358.961731 277.902313,359.281464 
	C278.740509,358.702057 279.578705,358.122620 280.796021,357.011383 
M307.456421,325.406830 
	C306.761169,325.734558 306.065887,326.062256 305.370636,326.389984 
	C305.540619,326.649231 305.710602,326.908478 305.880585,327.167725 
	C306.472504,326.661011 307.064423,326.154297 307.456421,325.406830 
M219.420609,280.398041 
	C219.644989,280.493103 219.869370,280.588165 220.093765,280.683197 
	C220.129196,280.550293 220.164612,280.417419 220.200043,280.284515 
	C219.958649,280.257294 219.717239,280.230103 219.420609,280.398041 
M223.628799,279.930847 
	C223.668594,279.944031 223.708389,279.957214 223.628799,279.930847 
M220.885208,284.776215 
	C220.885208,284.776215 220.576080,284.603241 220.576080,284.603241 
	C220.576080,284.603241 220.812653,284.856476 220.885208,284.776215 
M224.707230,283.561432 
	C224.707230,283.561432 224.671478,283.882874 224.671478,283.882874 
	C224.671478,283.882874 224.811646,283.595581 224.707230,283.561432 
M299.815735,329.222778 
	C299.815735,329.222778 299.776459,329.177277 299.815735,329.222778 
M342.824677,300.808258 
	C342.824677,300.808258 342.809845,300.809875 342.824677,300.808258 
M220.499664,295.064972 
	C220.499664,295.064972 220.573364,294.872925 220.573364,294.872925 
	C220.573364,294.872925 220.415329,294.992523 220.499664,295.064972 
z"/>
<path fill="#92B7B7" opacity="1.000000" stroke="none" 
	d="
M272.916199,200.733246 
	C273.330048,200.661102 273.743927,200.588974 274.770325,200.684204 
	C277.303864,201.192917 279.212616,201.705582 281.148071,201.843521 
	C287.042236,202.263596 292.946686,202.539124 298.827515,202.947083 
	C298.807922,203.023239 298.963531,203.297943 298.963531,203.297943 
	C298.963531,203.297943 299.286865,203.295929 299.640320,203.358673 
	C303.717773,204.693237 307.959076,205.222610 311.062622,207.384964 
	C318.473724,212.548599 325.348450,218.482147 332.629089,224.405579 
	C335.116913,227.815033 337.415375,230.923721 339.867401,234.362946 
	C341.327148,236.341141 342.633301,237.988770 343.971924,239.586853 
	C344.004364,239.537292 343.905212,239.472427 343.783936,239.927383 
	C344.099976,240.785339 344.537323,241.188339 344.990234,241.538422 
	C345.005829,241.485489 344.899994,241.454254 344.645630,241.885056 
	C344.905945,243.074341 345.420624,243.832825 345.968353,244.554504 
	C346.001404,244.517670 345.927795,244.451508 345.748810,244.977173 
	C345.690186,245.852921 345.810577,246.203003 345.796387,246.850525 
	C345.797607,247.779984 345.933441,248.412003 346.135254,249.417572 
	C346.877228,253.511261 348.011902,257.216888 348.130310,260.954712 
	C348.352264,267.962097 347.985992,274.988159 347.896332,282.002441 
	C347.928284,281.998444 347.907074,281.937622 347.565552,282.207275 
	C347.107086,283.827911 346.990143,285.178833 346.921661,286.545959 
	C346.970154,286.562134 347.006714,286.415741 347.006714,286.415741 
	C346.162720,286.978302 345.318695,287.540833 344.215881,287.836426 
	C344.024139,286.429504 344.091156,285.289459 344.134216,283.777649 
	C343.752777,282.513885 343.395325,281.621918 343.040161,280.329468 
	C343.091919,278.327820 343.141418,276.726562 343.393738,275.247711 
	C344.584106,274.759247 345.571655,274.148407 346.559204,273.537567 
	C345.694794,272.695282 344.830353,271.853027 343.913696,270.566956 
	C343.885712,267.741028 343.909943,265.358826 344.130524,263.102264 
	C344.927032,263.938629 345.527161,264.649353 346.127289,265.360107 
	C346.393127,265.250031 346.658966,265.139954 346.924805,265.029877 
	C346.598083,262.987885 346.271362,260.945923 345.918213,258.514587 
	C344.929779,254.898987 343.967834,251.672760 342.999146,248.477386 
	C342.992371,248.508240 343.051971,248.529922 343.079590,248.205658 
	C342.413605,247.254379 341.720032,246.627350 340.908325,246.285675 
	C341.463379,248.063019 342.136475,249.554977 342.866943,251.355621 
	C342.967896,252.080048 343.011475,252.495819 343.016632,253.257599 
	C342.962158,253.835144 342.946106,254.066681 342.691925,254.441620 
	C342.638458,257.075867 342.823151,259.566742 343.023590,262.033386 
	C343.039368,262.009155 343.005890,261.962128 342.993103,262.410583 
	C341.261078,272.190094 339.541809,281.521149 337.618317,291.128967 
	C333.352722,300.604828 326.991364,308.060425 319.682098,314.797424 
	C319.015015,315.254242 318.347900,315.711060 317.241180,316.493225 
	C316.431549,317.143250 316.061554,317.467926 315.691559,317.792603 
	C315.226837,318.039886 314.762115,318.287140 313.832031,318.823975 
	C312.520447,319.707489 311.674164,320.301453 310.827881,320.895416 
	C299.363342,326.604858 287.312744,329.570923 273.963074,328.847778 
	C273.490173,329.026062 273.580292,329.005646 273.388000,328.752197 
	C272.783966,328.398285 272.372192,328.297882 271.638184,328.100647 
	C270.066895,327.773010 268.817841,327.542145 267.568756,327.311279 
	C265.891876,326.838318 264.214966,326.365356 262.538086,325.892395 
	C262.608276,325.556122 262.678436,325.219849 262.748627,324.883575 
	C266.648468,325.364471 270.540100,325.929474 274.449524,326.312592 
	C300.043854,328.820801 325.099518,314.551208 335.455261,291.028625 
	C344.129944,271.324493 340.552399,252.487305 330.097046,234.451981 
	C329.181976,232.873489 328.120270,231.379990 327.024078,229.219162 
	C327.064514,224.267807 325.476532,221.502487 320.326782,221.521027 
	C317.291870,219.639084 314.594177,217.875931 311.773315,215.790558 
	C308.918701,213.902832 306.187286,212.337311 303.073730,210.604980 
	C293.748322,209.656586 284.804993,208.875015 275.472412,208.076828 
	C274.044403,208.034576 273.005615,208.008911 271.713654,207.967743 
	C270.989655,208.116608 270.518829,208.280991 269.700378,208.546997 
	C268.539551,209.085266 267.726349,209.521881 266.954590,209.972885 
	C266.996033,209.987274 267.024780,209.904419 266.677582,209.808640 
	C265.528717,210.118530 264.727020,210.524200 263.954102,210.943359 
	C263.982819,210.956833 263.994934,210.894531 263.592651,210.800995 
	C262.260620,211.472321 261.330841,212.237167 260.288330,212.793335 
	C259.562714,212.584763 258.949799,212.584885 258.336884,212.585007 
	C231.336105,225.528137 221.231598,247.901794 223.062897,276.937347 
	C222.541000,276.872803 222.019104,276.808258 221.497208,276.743713 
	C221.248001,271.803894 220.998795,266.864075 220.831604,261.086487 
	C221.547943,256.346405 222.182266,252.444107 222.816605,248.541809 
	C222.355148,248.462250 221.893692,248.382706 221.432236,248.303146 
	C220.711975,252.559830 219.991699,256.816498 219.271439,261.073181 
	C219.271439,265.992157 219.271439,270.911102 219.271439,275.830078 
	C218.897629,275.898743 218.523834,275.967438 218.150024,276.036133 
	C217.794983,274.164001 217.236313,272.304626 217.118240,270.417664 
	C216.399826,258.936127 218.644653,247.958542 222.921036,237.337570 
	C223.404236,236.137405 223.609482,234.825317 224.147400,233.066483 
	C224.726883,232.024231 225.102585,231.480637 225.478287,230.937042 
	C234.714172,217.702225 246.357132,207.647812 262.974060,203.042984 
	C265.819489,202.630737 267.891663,202.319092 270.008606,201.999939 
	C270.053436,201.992416 269.920837,202.032410 270.127808,201.849670 
	C271.195251,201.355698 272.055725,201.044464 272.916199,200.733246 
M339.859772,241.629578 
	C340.101990,241.750336 340.344177,241.871094 340.586395,241.991852 
	C340.508301,241.561630 340.430176,241.131393 340.185089,240.158218 
	C339.909027,239.668365 339.632935,239.178513 339.179016,238.326828 
	C338.934509,238.211090 338.690033,238.095367 338.445526,237.979630 
	C338.550720,238.390350 338.655945,238.801056 338.891602,239.768372 
	C339.162750,240.264771 339.433929,240.761169 339.859772,241.629578 
z"/>
<path fill="#3FA0A0" opacity="1.000000" stroke="none" 
	d="
M267.252472,327.501099 
	C268.817841,327.542145 270.066895,327.773010 271.886658,328.278137 
	C272.831665,328.703491 273.205994,328.854584 273.580292,329.005646 
	C273.580292,329.005646 273.490173,329.026062 273.480072,328.980927 
	C273.930878,329.950287 274.391754,330.964783 274.981659,332.665283 
	C275.129150,333.599304 275.147614,333.847290 275.166046,334.095245 
	C274.522247,342.084991 273.573395,350.024719 267.386871,355.969879 
	C265.286926,357.987854 262.856934,359.954376 260.207458,361.043976 
	C255.572113,362.950378 252.427032,360.888519 252.532532,355.941162 
	C252.743759,346.035736 256.782471,337.510895 263.204865,330.106750 
	C264.137482,329.031586 265.677338,328.483093 267.252472,327.501099 
z"/>
<path fill="#3F9E9E" opacity="1.000000" stroke="none" 
	d="
M243.638870,388.339966 
	C242.703110,396.684601 235.720261,398.664124 230.096741,401.684082 
	C222.394730,405.820282 214.237549,405.686401 205.034897,402.201263 
	C207.714706,399.892548 209.646011,397.433441 212.175095,396.199860 
	C219.579803,392.588135 227.159958,389.309204 234.803253,386.226929 
	C237.815506,385.012177 241.311935,384.017059 243.638870,388.339966 
z"/>
<path fill="#0AB6BE" opacity="1.000000" stroke="none" 
	d="
M279.178680,304.518921 
	C275.621307,305.186554 272.377258,305.610718 269.136566,306.059021 
	C267.143738,306.334686 265.155975,306.647247 262.569336,307.031952 
	C262.569336,298.274994 262.569336,288.978363 262.569336,279.090515 
	C266.705170,279.090515 270.854340,278.649933 274.869110,279.196625 
	C280.505524,279.964142 281.712921,284.813019 278.072784,290.660278 
	C283.241882,296.684906 283.511658,299.272217 279.178680,304.518921 
M273.985840,303.096069 
	C278.497314,301.679932 280.704132,297.594330 277.727722,295.429779 
	C275.178162,293.575623 271.125122,293.529266 267.708160,293.389648 
	C267.155426,293.367035 266.048584,296.992004 265.894226,298.984833 
	C265.422729,305.073151 270.159393,302.669159 273.985840,303.096069 
M265.878021,283.690979 
	C265.648254,289.944305 267.709412,291.736755 273.636749,289.793304 
	C275.040344,289.333099 276.566650,287.156799 276.713074,285.642029 
	C276.821869,284.516357 274.916107,282.302765 273.688843,282.130188 
	C271.254639,281.787933 268.669250,282.520782 265.878021,283.690979 
z"/>
<path fill="#3F9E9E" opacity="1.000000" stroke="none" 
	d="
M139.505951,377.489655 
	C147.311432,384.414978 156.129379,388.860138 165.317703,392.760651 
	C167.226730,393.571075 168.637360,395.555573 170.633041,397.311676 
	C165.829330,400.820709 161.433319,399.379761 158.119888,397.631592 
	C149.737030,393.208893 140.818405,389.311249 134.563568,381.754089 
	C133.447006,380.405029 133.520172,378.071289 133.043976,376.192200 
	C135.097183,376.556122 137.150375,376.920013 139.505951,377.489655 
z"/>
<path fill="#05BBC3" opacity="1.000000" stroke="none" 
	d="
M177.726532,295.121216 
	C176.692139,305.702850 173.020233,307.974243 162.314880,304.809479 
	C162.160339,307.773041 162.009155,310.672485 161.781845,315.031799 
	C160.326492,313.414978 159.117233,312.698395 159.105927,311.963348 
	C158.973465,303.356384 159.020996,294.746613 159.020996,287.083862 
	C162.284348,286.395874 164.919144,285.836700 167.555573,285.285370 
	C172.917389,284.164062 176.314240,287.317810 177.726532,295.121216 
M166.857285,303.318176 
	C170.251190,303.919678 173.009003,302.916260 173.796265,299.405182 
	C174.628067,295.695465 175.353210,291.434845 171.423157,289.066986 
	C169.839294,288.112701 166.620621,288.199219 165.061905,289.216095 
	C161.576889,291.489624 161.470795,295.412201 162.747162,299.045593 
	C163.288864,300.587646 164.920013,301.746979 166.857285,303.318176 
z"/>
<path fill="#08B8C0" opacity="1.000000" stroke="none" 
	d="
M224.163910,299.092438 
	C223.947891,297.336517 223.731888,295.580627 223.593857,293.389648 
	C223.926422,292.575226 224.181000,292.195892 224.435562,291.816528 
	C224.658859,291.296082 224.882187,290.775635 225.366791,289.704407 
	C225.744949,288.497406 225.861832,287.841217 225.978699,287.185059 
	C227.219040,286.760773 228.466949,286.357330 229.698471,285.908905 
	C237.409073,283.101318 242.776932,287.663513 241.389160,296.308594 
	C237.087753,296.532074 232.695633,296.760254 228.313156,296.987946 
	C228.619415,303.602478 229.699356,303.939026 240.769836,301.299591 
	C239.899994,305.963440 237.256470,307.029480 229.062881,305.513062 
	C228.020325,305.125427 227.534088,305.020966 227.047836,304.916504 
	C227.047836,304.916504 227.002472,304.953949 226.957275,304.708191 
	C226.615555,304.286865 226.319031,304.111237 226.022507,303.935638 
	C226.022507,303.935638 226.004196,303.992218 225.977615,303.713806 
	C225.645706,303.261963 225.340378,303.088531 225.035049,302.915100 
	C225.035049,302.915100 225.223816,303.054321 225.296539,302.619202 
	C224.967468,301.153564 224.565689,300.122986 224.163910,299.092438 
M233.561249,293.939606 
	C235.172974,293.869232 236.784698,293.798859 238.678238,293.716187 
	C238.436371,289.820709 236.863922,287.465149 233.185379,288.108948 
	C231.429337,288.416260 229.946884,290.286926 228.340515,291.449463 
	C229.805817,292.279083 231.271118,293.108673 233.561249,293.939606 
z"/>
<path fill="#758888" opacity="1.000000" stroke="none" 
	d="
M332.439758,224.104797 
	C325.348450,218.482147 318.473724,212.548599 311.062622,207.384964 
	C307.959076,205.222610 303.717773,204.693237 299.529724,203.253128 
	C299.065643,203.084839 298.847137,202.870911 298.847137,202.870911 
	C292.946686,202.539124 287.042236,202.263596 281.148071,201.843521 
	C279.212616,201.705582 277.303864,201.192917 275.080505,200.628647 
	C275.306641,200.303040 275.835205,200.200363 277.126526,200.259247 
	C280.837067,200.149628 283.784851,199.878448 286.793671,199.335693 
	C286.914032,198.699661 286.973297,198.335175 287.027100,197.979706 
	C287.021637,197.988724 287.017059,198.006165 287.017059,198.006165 
	C300.100769,198.350479 312.037201,202.458588 322.655365,209.882233 
	C327.201508,213.060638 330.855591,217.514954 334.877930,221.857941 
	C334.040466,222.919189 333.240112,223.511993 332.439758,224.104797 
z"/>
<path fill="#3F9E9E" opacity="1.000000" stroke="none" 
	d="
M116.716293,261.344177 
	C117.793175,263.395050 119.763939,265.955231 119.191582,267.663208 
	C117.161804,273.720367 114.349892,279.527435 111.601624,285.318787 
	C111.192879,286.180115 109.534889,286.448639 108.454849,286.991394 
	C107.980911,285.858154 107.024185,284.686951 107.109734,283.597595 
	C107.767990,275.215576 109.327354,267.146606 116.716293,261.344177 
z"/>
<path fill="#0AB6BE" opacity="1.000000" stroke="none" 
	d="
M192.732468,292.808899 
	C195.310425,289.208679 193.563446,287.865295 190.344299,288.131073 
	C188.180511,288.309692 186.097626,289.468231 183.129852,290.476807 
	C183.573715,289.089172 183.705139,287.534149 184.162659,287.431427 
	C187.413727,286.701416 191.019318,285.269989 193.922516,286.106903 
	C195.729355,286.627747 197.069992,290.606934 197.613098,293.241547 
	C198.439819,297.251984 198.393661,301.442322 198.693359,305.241058 
	C195.776062,305.535858 191.798553,306.499329 187.962769,306.100311 
	C185.890076,305.884674 182.690994,303.518250 182.468826,301.802460 
	C182.195847,299.694366 184.034698,296.739899 185.830933,295.110840 
	C187.378708,293.707153 190.147034,293.649261 192.732468,292.808899 
M190.039307,296.443146 
	C189.241470,296.666351 188.086365,296.637512 187.716064,297.162354 
	C186.787506,298.478516 186.214142,300.045288 185.498306,301.511566 
	C187.155441,302.227753 189.530685,303.991028 190.323700,303.447174 
	C192.102005,302.227631 193.093857,299.861237 194.405914,297.961823 
	C193.197540,297.396942 191.989166,296.832062 190.039307,296.443146 
z"/>
<path fill="#3F9E9E" opacity="1.000000" stroke="none" 
	d="
M109.221176,345.854553 
	C112.134300,352.011200 114.802925,357.966034 117.299606,363.992126 
	C117.590080,364.693268 117.208244,366.163727 116.629478,366.595215 
	C116.059479,367.020142 114.685959,366.870544 113.934433,366.468933 
	C108.039619,363.318726 101.964622,349.848450 103.495934,342.464661 
	C105.439919,343.613770 107.182632,344.643921 109.221176,345.854553 
z"/>
<path fill="#3F9E9E" opacity="1.000000" stroke="none" 
	d="
M133.725555,251.738708 
	C131.058762,253.051636 128.668732,254.137711 126.278702,255.223785 
	C126.727356,252.507278 126.658981,249.565628 127.724930,247.117935 
	C130.539154,240.655746 136.723053,238.069702 142.677628,235.457169 
	C143.672531,235.020660 145.111908,235.597183 146.345901,235.705597 
	C146.636261,236.144852 146.926620,236.584122 147.216980,237.023376 
	C142.812103,241.852875 138.407211,246.682358 133.725555,251.738708 
z"/>
<path fill="#7D9595" opacity="1.000000" stroke="none" 
	d="
M270.048004,208.445343 
	C270.518829,208.280991 270.989655,208.116608 271.917603,208.204849 
	C273.537079,208.336121 274.699371,208.214783 275.861694,208.093445 
	C284.804993,208.875015 293.748322,209.656586 303.196899,210.905365 
	C306.433594,212.952637 309.165039,214.532700 311.896484,216.112762 
	C314.594177,217.875931 317.291870,219.639084 320.426880,221.739380 
	C321.234131,222.858383 321.604034,223.640244 322.075623,224.812637 
	C322.471161,225.646866 322.765045,226.090546 323.033447,226.497543 
	C323.007996,226.460846 323.081421,226.409958 323.081421,226.409958 
	C321.373016,225.434708 319.504456,224.661240 317.981384,223.452454 
	C305.248932,213.347351 291.062469,208.680222 274.787842,211.698532 
	C269.163635,212.741608 263.564209,213.918304 257.811005,215.062271 
	C257.848999,214.897095 258.009064,214.201462 258.252991,213.045410 
	C258.949799,212.584885 259.562714,212.584763 260.639343,212.712006 
	C262.067017,212.191086 263.030975,211.542801 263.994934,210.894531 
	C263.994934,210.894531 263.982819,210.956833 264.297638,211.001740 
	C265.416565,210.665894 266.220673,210.285156 267.024780,209.904419 
	C267.024780,209.904419 266.996033,209.987274 267.326111,209.991074 
	C268.453430,209.478363 269.250732,208.961853 270.048004,208.445343 
z"/>
<path fill="#08B8C0" opacity="1.000000" stroke="none" 
	d="
M151.359879,286.772400 
	C151.225464,287.773743 150.841965,289.211914 150.476639,289.207306 
	C149.564896,289.195831 148.590225,288.082947 147.768906,288.214142 
	C145.840530,288.522156 143.987091,289.299286 142.103317,289.886536 
	C143.449966,291.231720 144.645889,292.798584 146.192200,293.850189 
	C147.374054,294.653931 149.105347,294.603668 150.406769,295.286652 
	C153.910141,297.125122 154.459518,301.956604 151.583313,304.586426 
	C148.096725,307.774353 141.119202,306.567627 137.689987,301.269348 
	C139.557831,301.675049 140.583145,301.876923 141.597794,302.122742 
	C143.333694,302.543335 145.098068,303.417786 146.782654,303.278900 
	C147.914917,303.185547 149.633331,301.786530 149.795975,300.765594 
	C149.951843,299.787048 148.659134,298.215363 147.600372,297.502319 
	C146.418106,296.706116 144.780197,296.590485 143.344376,296.165833 
	C140.258636,295.253235 137.879471,293.185333 139.050415,290.043701 
	C139.800186,288.032104 142.345947,286.040924 144.494385,285.393127 
	C146.411758,284.815002 148.888916,286.093414 151.359879,286.772400 
z"/>
<path fill="#08B8C0" opacity="1.000000" stroke="none" 
	d="
M218.837891,291.213165 
	C216.148331,288.755371 212.739655,286.108856 209.754425,289.197296 
	C207.747467,291.273621 206.820312,295.450928 207.149933,298.500214 
	C207.765900,304.198547 212.769073,304.757172 219.295410,300.222351 
	C220.143326,303.177704 219.097763,305.095703 215.799408,305.927765 
	C211.841370,306.926208 208.007767,306.515381 205.426819,302.969788 
	C202.415695,298.833282 202.275345,294.240021 204.668243,289.765533 
	C206.715164,285.938019 210.260025,284.671478 214.399002,285.236755 
	C215.826904,285.431732 217.167953,286.262756 218.992920,287.253845 
	C219.676895,288.411163 219.916595,289.117889 220.156311,289.824585 
	C220.156311,289.824585 219.933838,290.211548 219.619003,290.550720 
	C219.148743,290.997681 218.993317,291.105408 218.837891,291.213165 
z"/>
<path fill="#409C9C" opacity="1.000000" stroke="none" 
	d="
M101.100250,303.757904 
	C102.508842,303.538849 104.695847,303.472412 104.703270,303.570709 
	C105.197289,310.106384 105.543427,316.654327 105.790390,323.205353 
	C105.808121,323.675629 104.989243,324.177460 104.576965,324.644623 
	C99.158295,321.427826 97.744209,313.325317 101.100250,303.757904 
z"/>
<path fill="#6B7878" opacity="1.000000" stroke="none" 
	d="
M332.629089,224.405579 
	C333.240112,223.511993 334.040466,222.919189 335.138794,222.081238 
	C344.538269,230.030411 348.081116,241.069107 351.048584,252.394714 
	C351.384735,253.677704 351.556213,255.003845 351.710571,256.887573 
	C351.253387,257.990387 350.889740,258.515594 350.335602,258.698975 
	C348.786469,255.252747 347.427887,252.148392 346.069275,249.044022 
	C345.933441,248.412003 345.797607,247.779984 345.858154,246.590881 
	C346.012268,245.506363 345.970032,244.978943 345.927795,244.451508 
	C345.927795,244.451508 346.001404,244.517670 345.892029,244.146408 
	C345.488403,243.001511 345.194214,242.227890 344.899994,241.454254 
	C344.899994,241.454254 345.005829,241.485489 344.840729,241.171249 
	C344.418823,240.395477 344.162018,239.933945 343.905212,239.472427 
	C343.905212,239.472427 344.004364,239.537292 343.876343,239.220551 
	C342.403473,237.279999 341.058655,235.656204 339.713806,234.032410 
	C337.415375,230.923721 335.116913,227.815033 332.629089,224.405579 
z"/>
<path fill="#459E9E" opacity="1.000000" stroke="none" 
	d="
M168.344574,378.056274 
	C174.290924,379.673279 180.287323,380.257996 185.081467,384.518066 
	C178.727005,389.096680 167.111633,385.478210 163.565231,378.004028 
	C165.168793,378.004028 166.570847,378.004028 168.344574,378.056274 
z"/>
<path fill="#3F9E9E" opacity="1.000000" stroke="none" 
	d="
M170.139130,231.423035 
	C172.705673,231.702026 174.921249,232.098053 177.136826,232.494080 
	C175.564621,233.986755 174.239624,236.087967 172.369644,236.847580 
	C168.262726,238.515778 163.880142,239.505325 159.261765,239.972397 
	C160.801727,234.283722 165.378021,233.020157 170.139130,231.423035 
z"/>
<path fill="#409C9C" opacity="1.000000" stroke="none" 
	d="
M225.188538,230.742859 
	C225.102585,231.480637 224.726883,232.024231 224.174072,232.688782 
	C219.791428,232.066910 215.547272,231.486801 211.399139,230.502228 
	C209.711685,230.101700 208.232849,228.822296 206.892487,227.321808 
	C213.848083,223.821640 219.461090,226.712036 225.188538,230.742859 
z"/>
<path fill="#409C9C" opacity="1.000000" stroke="none" 
	d="
M188.396347,221.792145 
	C191.121735,221.992416 193.439941,222.216858 196.672516,222.529846 
	C191.317474,226.875061 181.918060,228.319534 177.234467,224.695450 
	C180.819366,223.735733 184.404282,222.776016 188.396347,221.792145 
z"/>
<path fill="#758888" opacity="1.000000" stroke="none" 
	d="
M350.526123,259.040802 
	C350.889740,258.515594 351.253387,257.990387 351.767975,257.280365 
	C352.946442,270.953857 351.868591,284.448486 344.511261,296.845764 
	C345.311249,293.678864 346.111237,290.511993 346.958984,286.880432 
	C347.006714,286.415741 346.970154,286.562134 347.149841,286.214539 
	C347.522034,284.557159 347.714539,283.247406 347.907043,281.937622 
	C347.907074,281.937622 347.928284,281.998444 348.149628,281.696503 
	C349.089355,273.943298 349.807739,266.492065 350.526123,259.040802 
z"/>
<path fill="#616969" opacity="1.000000" stroke="none" 
	d="
M320.092072,314.785522 
	C326.991364,308.060425 333.352722,300.604828 337.831879,291.388672 
	C338.533722,291.721161 338.817780,292.070740 339.101807,292.420349 
	C334.628632,299.442383 330.288757,306.556854 325.546936,313.392548 
	C324.785034,314.490906 322.228821,314.344604 320.092072,314.785522 
z"/>
<path fill="#6B7878" opacity="1.000000" stroke="none" 
	d="
M339.383545,292.139099 
	C338.817780,292.070740 338.533722,291.721161 338.036102,291.111877 
	C339.541809,281.521149 341.261078,272.190094 343.152527,262.574982 
	C343.532623,262.515259 343.735748,262.743835 343.934143,262.976654 
	C343.909943,265.358826 343.885712,267.741028 343.793213,270.897369 
	C343.546936,272.822815 343.368896,273.974060 343.190918,275.125336 
	C343.141418,276.726562 343.091919,278.327820 343.008850,280.609009 
	C343.369568,282.242432 343.763885,283.195953 344.158203,284.149445 
	C344.091156,285.289459 344.024139,286.429504 343.896545,287.842194 
	C342.445709,289.362549 341.055511,290.610229 339.383545,292.139099 
z"/>
<path fill="#0AB6BE" opacity="1.000000" stroke="none" 
	d="
M246.919098,291.656372 
	C250.013138,291.511536 252.826797,291.511536 256.480530,291.511536 
	C252.520111,295.255402 248.570206,295.021118 246.919098,291.656372 
z"/>
<path fill="#409C9C" opacity="1.000000" stroke="none" 
	d="
M280.606445,357.277283 
	C279.578705,358.122620 278.740509,358.702057 277.902313,359.281464 
	C277.488831,358.961731 277.075348,358.641968 276.661865,358.322205 
	C278.131775,355.444794 279.601715,352.567383 281.071625,349.689972 
	C281.772125,349.982117 282.472595,350.274292 283.173096,350.566467 
	C282.380737,352.714783 281.588379,354.863068 280.606445,357.277283 
z"/>
<path fill="#7D9595" opacity="1.000000" stroke="none" 
	d="
M275.607361,334.088928 
	C275.147614,333.847290 275.129150,333.599304 275.100250,332.978119 
	C281.804688,331.931610 288.519531,331.258331 295.234375,330.585022 
	C295.288544,330.933960 295.342682,331.282867 295.396851,331.631775 
	C288.947449,332.448730 282.498077,333.265656 275.607361,334.088928 
z"/>
<path fill="#8AA9A9" opacity="1.000000" stroke="none" 
	d="
M323.433472,226.419098 
	C323.081421,226.409958 323.007996,226.460846 322.981934,226.090225 
	C322.628571,225.287109 322.301270,224.854599 321.973969,224.422089 
	C321.604034,223.640244 321.234131,222.858383 320.764099,221.858154 
	C325.476532,221.502487 327.064514,224.267807 326.876587,228.909393 
	C325.816315,228.294388 324.800934,227.361313 323.433472,226.419098 
z"/>
<path fill="#758888" opacity="1.000000" stroke="none" 
	d="
M269.963806,202.007446 
	C267.891663,202.319092 265.819489,202.630737 263.356750,202.953568 
	C265.471283,199.956985 268.363586,198.334824 272.596100,200.548248 
	C272.055725,201.044464 271.195251,201.355698 270.141266,201.843018 
	C269.947723,202.019104 269.963806,202.007446 269.963806,202.007446 
z"/>
<path fill="#616969" opacity="1.000000" stroke="none" 
	d="
M219.511139,261.088348 
	C219.991699,256.816498 220.711975,252.559830 221.432236,248.303146 
	C221.893692,248.382706 222.355148,248.462250 222.816605,248.541809 
	C222.182266,252.444107 221.547943,256.346405 220.812103,260.662537 
	C220.710602,261.076324 220.231171,261.105988 220.231171,261.105988 
	C220.231171,261.105988 219.750839,261.103516 219.511139,261.088348 
z"/>
<path fill="#758888" opacity="1.000000" stroke="none" 
	d="
M281.946228,199.944122 
	C280.467743,199.380203 278.989288,198.816299 276.572845,197.894638 
	C280.342773,197.894638 283.305847,197.894638 286.643005,197.950409 
	C287.017059,198.006165 287.021637,197.988724 286.723053,197.966949 
	C285.689941,198.533218 284.955444,199.121262 283.847473,199.794952 
	C282.964783,199.901794 282.455505,199.922958 281.946228,199.944122 
z"/>
<path fill="#92B7B7" opacity="1.000000" stroke="none" 
	d="
M281.548492,199.964630 
	C282.455505,199.922958 282.964783,199.901794 284.161469,199.782074 
	C285.476776,199.658096 286.104706,199.632690 286.732605,199.607269 
	C283.784851,199.878448 280.837067,200.149628 277.531433,200.278351 
	C278.499268,200.085648 279.825012,200.035400 281.548492,199.964630 
z"/>
<path fill="#595D5D" opacity="1.000000" stroke="none" 
	d="
M311.067719,321.030579 
	C311.674164,320.301453 312.520447,319.707489 313.670654,319.034515 
	C314.694183,321.633301 313.952240,322.547485 311.067719,321.030579 
z"/>
<path fill="#595D5D" opacity="1.000000" stroke="none" 
	d="
M307.556396,325.527222 
	C307.064423,326.154297 306.472504,326.661011 305.880585,327.167725 
	C305.710602,326.908478 305.540619,326.649231 305.370636,326.389984 
	C306.065887,326.062256 306.761169,325.734558 307.556396,325.527222 
z"/>
<path fill="#616969" opacity="1.000000" stroke="none" 
	d="
M227.121338,305.243469 
	C227.534088,305.020966 228.020325,305.125427 228.683594,305.397461 
	C229.527573,306.805267 230.194534,308.045441 230.936218,309.644684 
	C231.010956,310.003723 230.945709,310.074646 230.945709,310.074646 
	C229.695419,308.573242 228.445145,307.071808 227.121338,305.243469 
z"/>
<path fill="#595D5D" opacity="1.000000" stroke="none" 
	d="
M224.185852,291.522339 
	C224.181000,292.195892 223.926422,292.575226 223.454041,293.038666 
	C222.608383,292.210968 221.980530,291.299164 221.329865,289.954498 
	C221.489731,289.331482 221.672226,289.141174 221.854553,288.950714 
	C222.548401,289.709869 223.242264,290.469025 224.185852,291.522339 
z"/>
<path fill="#595D5D" opacity="1.000000" stroke="none" 
	d="
M315.882233,317.926025 
	C316.061554,317.467926 316.431549,317.143250 317.025757,316.707764 
	C317.403442,317.154541 317.556946,317.712128 317.710419,318.269684 
	C317.164581,318.199585 316.618744,318.129486 315.882233,317.926025 
z"/>
<path fill="#595D5D" opacity="1.000000" stroke="none" 
	d="
M219.448227,280.300476 
	C219.717239,280.230103 219.958649,280.257294 220.200043,280.284515 
	C220.164612,280.417419 220.129196,280.550293 220.093765,280.683197 
	C219.869370,280.588165 219.644989,280.493103 219.448227,280.300476 
z"/>
<path fill="#616969" opacity="1.000000" stroke="none" 
	d="
M223.916855,299.015839 
	C224.565689,300.122986 224.967468,301.153564 225.366180,302.524841 
	C224.555176,301.858398 223.747238,300.851166 222.955078,299.422913 
	C222.970825,299.001831 223.171036,298.802002 223.171036,298.802002 
	C223.337296,298.847717 223.503555,298.893463 223.916855,299.015839 
z"/>
<path fill="#616969" opacity="1.000000" stroke="none" 
	d="
M221.683350,288.737366 
	C221.672226,289.141174 221.489731,289.331482 221.171204,289.661987 
	C221.035339,289.802307 220.595276,289.821014 220.375793,289.822815 
	C219.916595,289.117889 219.676895,288.411163 219.328674,287.448822 
	C219.984177,287.636780 220.748154,288.080383 221.683350,288.737366 
z"/>
<path fill="#595D5D" opacity="1.000000" stroke="none" 
	d="
M223.688477,279.950623 
	C223.708389,279.957214 223.668594,279.944031 223.688477,279.950623 
z"/>
<path fill="#595D5D" opacity="1.000000" stroke="none" 
	d="
M220.848938,284.816345 
	C220.812653,284.856476 220.576080,284.603241 220.576080,284.603241 
	C220.576080,284.603241 220.885208,284.776215 220.848938,284.816345 
z"/>
<path fill="#595D5D" opacity="1.000000" stroke="none" 
	d="
M224.759430,283.578491 
	C224.811646,283.595581 224.671478,283.882874 224.671478,283.882874 
	C224.671478,283.882874 224.707230,283.561432 224.759430,283.578491 
z"/>
<path fill="#595D5D" opacity="1.000000" stroke="none" 
	d="
M299.796082,329.200012 
	C299.776459,329.177277 299.815735,329.222778 299.796082,329.200012 
z"/>
<path fill="#758888" opacity="1.000000" stroke="none" 
	d="
M342.817261,300.809082 
	C342.809845,300.809875 342.824677,300.808258 342.817261,300.809082 
z"/>
<path fill="#595D5D" opacity="1.000000" stroke="none" 
	d="
M225.833069,287.332275 
	C225.861832,287.841217 225.744949,288.497406 225.410004,289.421326 
	C225.357117,288.952515 225.522278,288.216034 225.833069,287.332275 
z"/>
<path fill="#616969" opacity="1.000000" stroke="none" 
	d="
M218.945419,291.290283 
	C218.993317,291.105408 219.148743,290.997681 219.558746,290.765625 
	C219.559875,290.883362 219.306412,291.125366 218.945419,291.290283 
z"/>
<path fill="#616969" opacity="1.000000" stroke="none" 
	d="
M220.457489,295.028748 
	C220.415329,294.992523 220.573364,294.872925 220.573364,294.872925 
	C220.573364,294.872925 220.499664,295.064972 220.457489,295.028748 
z"/>
<path fill="#616969" opacity="1.000000" stroke="none" 
	d="
M237.156982,314.818481 
	C237.156982,314.818481 237.173599,315.093628 237.173599,315.093628 
	C237.173599,315.093628 236.939087,315.220459 236.958511,315.108978 
	C236.977936,314.997498 237.156982,314.818481 237.156982,314.818481 
z"/>
<path fill="#616969" opacity="1.000000" stroke="none" 
	d="
M236.890259,315.088806 
	C236.802567,315.180115 237.028946,314.812439 237.092957,314.815460 
	C237.156982,314.818481 236.977936,314.997498 236.890259,315.088806 
z"/>
<path fill="#616969" opacity="1.000000" stroke="none" 
	d="
M233.161636,311.794373 
	C233.161636,311.794373 232.973404,312.127594 232.992004,312.041748 
	C233.010590,311.955933 233.161636,311.794373 233.161636,311.794373 
z"/>
<path fill="#616969" opacity="1.000000" stroke="none" 
	d="
M232.934540,312.036224 
	C232.628204,311.902069 232.413376,311.673126 232.105209,311.209442 
	C231.996399,310.989258 232.056915,310.921906 232.056915,310.921906 
	C232.324112,311.087158 232.576263,311.272827 232.987518,311.636658 
	C233.161636,311.794373 233.010590,311.955933 232.934540,312.036224 
z"/>
<path fill="#616969" opacity="1.000000" stroke="none" 
	d="
M231.963974,311.020874 
	C231.677200,310.872528 231.446335,310.666260 231.092346,310.254181 
	C230.945709,310.074646 231.010956,310.003723 231.049164,309.967957 
	C231.339996,310.113922 231.568024,310.322510 231.914185,310.739960 
	C232.056915,310.921906 231.996399,310.989258 231.963974,311.020874 
z"/>
<path fill="#616969" opacity="1.000000" stroke="none" 
	d="
M222.872345,299.103333 
	C222.773865,299.204834 222.751144,298.907166 222.751144,298.907166 
	C222.751144,298.907166 223.015198,298.775940 223.093109,298.788971 
	C223.171036,298.802002 222.970825,299.001831 222.872345,299.103333 
z"/>
<path fill="#616969" opacity="1.000000" stroke="none" 
	d="
M226.156357,304.144958 
	C226.319031,304.111237 226.615555,304.286865 226.984283,304.719788 
	C226.754761,304.826447 226.499344,304.618835 226.156357,304.144958 
z"/>
<path fill="#616969" opacity="1.000000" stroke="none" 
	d="
M225.180374,303.117310 
	C225.340378,303.088531 225.645706,303.261963 226.007126,303.710205 
	C225.783463,303.800781 225.537628,303.578918 225.180374,303.117310 
z"/>
<path fill="#545454" opacity="1.000000" stroke="none" 
	d="
M350.335571,258.698975 
	C349.807739,266.492065 349.089355,273.943298 348.117676,281.700500 
	C347.985992,274.988159 348.352264,267.962097 348.130310,260.954712 
	C348.011902,257.216888 346.877228,253.511261 346.135254,249.417572 
	C347.427887,252.148392 348.786469,255.252747 350.335571,258.698975 
z"/>
<path fill="#8AA9A9" opacity="1.000000" stroke="none" 
	d="
M344.130524,263.102264 
	C343.735748,262.743835 343.532623,262.515259 343.165283,262.126526 
	C343.005890,261.962128 343.039368,262.009155 343.011932,261.593750 
	C342.966370,258.884979 342.948212,256.591583 342.930084,254.298218 
	C342.946106,254.066681 342.962158,253.835144 343.178467,253.576508 
	C344.234070,255.334259 345.089355,257.119110 345.944641,258.903961 
	C346.271362,260.945923 346.598083,262.987885 346.924805,265.029877 
	C346.658966,265.139954 346.393127,265.250031 346.127289,265.360107 
	C345.527161,264.649353 344.927032,263.938629 344.130524,263.102264 
z"/>
<path fill="#8AA9A9" opacity="1.000000" stroke="none" 
	d="
M311.773315,215.790558 
	C309.165039,214.532700 306.433594,212.952637 303.579010,211.072189 
	C306.187286,212.337311 308.918701,213.902832 311.773315,215.790558 
z"/>
<path fill="#8AA9A9" opacity="1.000000" stroke="none" 
	d="
M343.393738,275.247711 
	C343.368896,273.974060 343.546936,272.822815 343.845459,271.341125 
	C344.830353,271.853027 345.694794,272.695282 346.559204,273.537567 
	C345.571655,274.148407 344.584106,274.759247 343.393738,275.247711 
z"/>
<path fill="#6B7878" opacity="1.000000" stroke="none" 
	d="
M345.918213,258.514587 
	C345.089355,257.119110 344.234070,255.334259 343.216919,253.230499 
	C343.011475,252.495819 342.967896,252.080048 342.884155,250.920197 
	C342.897980,249.599594 342.951935,249.023071 343.005890,248.446533 
	C343.967834,251.672760 344.929779,254.898987 345.918213,258.514587 
z"/>
<path fill="#8AA9A9" opacity="1.000000" stroke="none" 
	d="
M342.999146,248.477386 
	C342.951935,249.023071 342.897980,249.599594 342.826782,250.611542 
	C342.136475,249.554977 341.463379,248.063019 341.111633,246.544952 
	C341.972656,247.189209 342.512329,247.859558 343.051971,248.529907 
	C343.051971,248.529922 342.992371,248.508240 342.999146,248.477386 
z"/>
<path fill="#6B7878" opacity="1.000000" stroke="none" 
	d="
M342.691925,254.441620 
	C342.948212,256.591583 342.966370,258.884979 342.996155,261.617981 
	C342.823151,259.566742 342.638458,257.075867 342.691925,254.441620 
z"/>
<path fill="#545454" opacity="1.000000" stroke="none" 
	d="
M339.867401,234.362946 
	C341.058655,235.656204 342.403473,237.279999 343.843872,239.270111 
	C342.633301,237.988770 341.327148,236.341141 339.867401,234.362946 
z"/>
<path fill="#6B7878" opacity="1.000000" stroke="none" 
	d="
M343.079590,248.205658 
	C342.512329,247.859558 341.972656,247.189209 341.229706,246.259583 
	C341.720032,246.627350 342.413605,247.254379 343.079590,248.205658 
z"/>
<path fill="#545454" opacity="1.000000" stroke="none" 
	d="
M263.592651,210.800995 
	C263.030975,211.542801 262.067017,212.191086 260.752075,212.920685 
	C261.330841,212.237167 262.260620,211.472321 263.592651,210.800995 
z"/>
<path fill="#545454" opacity="1.000000" stroke="none" 
	d="
M347.565552,282.207275 
	C347.714539,283.247406 347.522034,284.557159 347.101318,286.198364 
	C346.990143,285.178833 347.107086,283.827911 347.565552,282.207275 
z"/>
<path fill="#545454" opacity="1.000000" stroke="none" 
	d="
M344.134216,283.777649 
	C343.763885,283.195953 343.369568,282.242432 343.006561,281.009430 
	C343.395325,281.621918 343.752777,282.513885 344.134216,283.777649 
z"/>
<path fill="#545454" opacity="1.000000" stroke="none" 
	d="
M275.472412,208.076843 
	C274.699371,208.214783 273.537079,208.336121 272.170807,208.220367 
	C273.005615,208.008911 274.044403,208.034576 275.472412,208.076843 
z"/>
<path fill="#545454" opacity="1.000000" stroke="none" 
	d="
M269.700378,208.546997 
	C269.250732,208.961853 268.453430,209.478363 267.284668,209.976685 
	C267.726349,209.521881 268.539551,209.085266 269.700378,208.546997 
z"/>
<path fill="#545454" opacity="1.000000" stroke="none" 
	d="
M266.677582,209.808624 
	C266.220673,210.285156 265.416565,210.665894 264.268921,210.988251 
	C264.727020,210.524200 265.528717,210.118530 266.677582,209.808624 
z"/>
<path fill="#545454" opacity="1.000000" stroke="none" 
	d="
M344.645630,241.885056 
	C345.194214,242.227890 345.488403,243.001511 345.858948,244.183228 
	C345.420624,243.832825 344.905945,243.074341 344.645630,241.885056 
z"/>
<path fill="#6B7878" opacity="1.000000" stroke="none" 
	d="
M338.761169,239.211761 
	C338.655945,238.801056 338.550720,238.390350 338.445526,237.979630 
	C338.690033,238.095367 338.934509,238.211090 339.118286,238.639023 
	C339.057526,238.951218 338.761169,239.211761 338.761169,239.211761 
z"/>
<path fill="#6B7878" opacity="1.000000" stroke="none" 
	d="
M339.705109,241.257553 
	C339.433929,240.761169 339.162750,240.264771 338.826385,239.490067 
	C338.761169,239.211761 339.057526,238.951218 339.207214,238.819946 
	C339.632935,239.178513 339.909027,239.668365 340.106812,240.568756 
	C340.028503,240.979309 339.705109,241.257553 339.705109,241.257553 
z"/>
<path fill="#758888" opacity="1.000000" stroke="none" 
	d="
M269.934265,202.025757 
	C269.920837,202.032410 270.053436,201.992416 270.008606,201.999939 
	C269.963806,202.007446 269.947723,202.019104 269.934265,202.025757 
z"/>
<path fill="#6B7878" opacity="1.000000" stroke="none" 
	d="
M340.190277,240.840240 
	C340.430176,241.131393 340.508301,241.561630 340.586395,241.991852 
	C340.344177,241.871094 340.101990,241.750336 339.782440,241.443573 
	C339.705109,241.257553 340.028503,240.979309 340.190277,240.840240 
z"/>
<path fill="#758888" opacity="1.000000" stroke="none" 
	d="
M299.176270,203.190384 
	C299.286865,203.295929 298.963531,203.297943 298.963531,203.297943 
	C298.963531,203.297943 298.807922,203.023239 298.827515,202.947083 
	C298.847137,202.870911 299.065643,203.084839 299.176270,203.190384 
z"/>
<path fill="#595D5D" opacity="1.000000" stroke="none" 
	d="
M273.388000,328.752197 
	C273.205994,328.854584 272.831665,328.703491 272.208893,328.374939 
	C272.372192,328.297882 272.783966,328.398285 273.388000,328.752197 
z"/>
<path fill="#545454" opacity="1.000000" stroke="none" 
	d="
M343.783936,239.927383 
	C344.162018,239.933945 344.418823,240.395477 344.825134,241.224182 
	C344.537323,241.188339 344.099976,240.785339 343.783936,239.927383 
z"/>
<path fill="#545454" opacity="1.000000" stroke="none" 
	d="
M345.748779,244.977173 
	C345.970032,244.978943 346.012268,245.506363 345.992737,246.293427 
	C345.810577,246.203003 345.690186,245.852921 345.748779,244.977173 
z"/>
<path fill="#545454" opacity="1.000000" stroke="none" 
	d="
M273.548523,303.121399 
	C270.159393,302.669159 265.422729,305.073151 265.894226,298.984833 
	C266.048584,296.992004 267.155426,293.367035 267.708160,293.389648 
	C271.125122,293.529266 275.178162,293.575623 277.727722,295.429779 
	C280.704132,297.594330 278.497314,301.679932 273.548523,303.121399 
z"/>
<path fill="#545454" opacity="1.000000" stroke="none" 
	d="
M266.012207,283.250122 
	C268.669250,282.520782 271.254639,281.787933 273.688843,282.130188 
	C274.916107,282.302765 276.821869,284.516357 276.713074,285.642029 
	C276.566650,287.156799 275.040344,289.333099 273.636749,289.793304 
	C267.709412,291.736755 265.648254,289.944305 266.012207,283.250122 
z"/>
<path fill="#515858" opacity="1.000000" stroke="none" 
	d="
M166.456665,303.199219 
	C164.920013,301.746979 163.288864,300.587646 162.747162,299.045593 
	C161.470795,295.412201 161.576889,291.489624 165.061905,289.216095 
	C166.620621,288.199219 169.839294,288.112701 171.423157,289.066986 
	C175.353210,291.434845 174.628067,295.695465 173.796265,299.405182 
	C173.009003,302.916260 170.251190,303.919678 166.456665,303.199219 
z"/>
<path fill="#515858" opacity="1.000000" stroke="none" 
	d="
M233.148834,293.938934 
	C231.271118,293.108673 229.805817,292.279083 228.340515,291.449463 
	C229.946884,290.286926 231.429337,288.416260 233.185379,288.108948 
	C236.863922,287.465149 238.436371,289.820709 238.678238,293.716187 
	C236.784698,293.798859 235.172974,293.869232 233.148834,293.938934 
z"/>
<path fill="#545454" opacity="1.000000" stroke="none" 
	d="
M286.793671,199.335709 
	C286.104706,199.632690 285.476776,199.658096 284.534912,199.696411 
	C284.955444,199.121262 285.689941,198.533218 286.728516,197.957947 
	C286.973297,198.335175 286.914032,198.699661 286.793671,199.335709 
z"/>
<path fill="#515858" opacity="1.000000" stroke="none" 
	d="
M190.410065,296.355164 
	C191.989166,296.832062 193.197540,297.396942 194.405914,297.961823 
	C193.093857,299.861237 192.102005,302.227631 190.323700,303.447174 
	C189.530685,303.991028 187.155441,302.227753 185.498306,301.511566 
	C186.214142,300.045288 186.787506,298.478516 187.716064,297.162354 
	C188.086365,296.637512 189.241470,296.666351 190.410065,296.355164 
z"/>
<path fill="#545454" opacity="1.000000" stroke="none" 
	d="
M322.075623,224.812622 
	C322.301270,224.854599 322.628571,225.287109 323.007385,226.126923 
	C322.765045,226.090546 322.471161,225.646866 322.075623,224.812622 
z"/>
</svg>